<svg xmlns="http://www.w3.org/2000/svg" xmlns:xlink="http://www.w3.org/1999/xlink" width="68" height="68" viewBox="0 0 68 68">
  <defs>
    <clipPath id="clip-path">
      <circle id="Ellipse_43" data-name="Ellipse 43" cx="34" cy="34" r="34" transform="translate(2182 -1242)" fill="#fff" stroke="#828282" stroke-width="1"/>
    </clipPath>
  </defs>
  <g id="Avatar" transform="translate(-646 -162)">
    <circle id="Ellipse_42" data-name="Ellipse 42" cx="34" cy="34" r="34" transform="translate(646 162)" fill="#f0f0f0"/>
    <g id="Group_9" data-name="Group 9" transform="translate(-1536 1404)" clip-path="url(#clip-path)">
      <g id="Group_1126" data-name="Group 1126" transform="translate(1591.851 -1369.236)">
        <path id="Path_90" data-name="Path 90" d="M692.389,165.5a62.551,62.551,0,0,1-3.022-18.547,14.512,14.512,0,0,0-2.65-7.017c-5.311-10.22-12.564-6.9-12.564-6.9s-4.239-2.166-8.853,7.717c0,0-2.772,3.87-2.036,14.261a25.028,25.028,0,0,1-.643,4.263c-.669,2.75-3.446,7.5-3.072,10.317a53.911,53.911,0,0,0,1.438,5.949l30.051.289C691.246,172.216,693.34,168.422,692.389,165.5Z" transform="translate(-51.173)" fill="#393d2b"/>
        <path id="Path_91" data-name="Path 91" d="M644.705,308.835c-.674-.239-6.757-1.966-8.108-3.169-1.163-1.035-1.737-3.264-1.758-4.867l-.049-3.708h-12.7l-.049,3.708c-.021,1.6-.595,3.832-1.758,4.867-1.352,1.2-7.435,2.93-8.108,3.169-7.011,2.488-10.308,5.143-10.936,11.307h54.409C655.013,313.978,651.716,311.324,644.705,308.835Z" transform="translate(-4.106 -134.732)" fill="#efcaa6"/>
        <path id="Path_92" data-name="Path 92" d="M698.09,171.657s-.506,3.282-6.628,11.675c.368,3.8.938,8.264,1.682,9.845a15.311,15.311,0,0,0,8.258,7.714,3.672,3.672,0,0,0,2.648,0,15.312,15.312,0,0,0,8.258-7.714c.748-1.589,1.319-6.087,1.687-9.9A38.861,38.861,0,0,1,698.09,171.657Z" transform="translate(-78.378 -31.609)" fill="#f4d9bf"/>
        <path id="Path_93" data-name="Path 93" d="M643.247,363.364a34.039,34.039,0,0,1-37.81,0c-5.176,2.215-8.81,4.57-9.27,15.59-.007.159-.012,17.636-.018,17.8h56.8c-.023-.2-.046-17.711-.07-17.9C651.5,367.636,648.409,365.573,643.247,363.364Z" transform="translate(0 -189.583)" fill="#ef549a"/>
        <path id="Path_94" data-name="Path 94" d="M750.012,206.978h30.035c-.025-4.539-.034-16.8-.073-16.991-.011-.055-.486-2.959-.8-4.373-.024-.11-.094-.341-.113-.45-.011-.064-.118-.42-.13-.483-.019-.1-.159-.517-.18-.612-.014-.065-.1-.308-.118-.373-.021-.091-.091-.25-.114-.339-.017-.064-.116-.311-.134-.375-.024-.088-.08-.2-.107-.282-.018-.061-.077-.183-.1-.244-.03-.092-.087-.195-.118-.284-.018-.052-.056-.122-.075-.174-.05-.134-.14-.268-.2-.4-.024-.056-.049-.111-.074-.167-.034-.076-.067-.153-.1-.228s-.062-.126-.094-.189-.065-.129-.1-.192-.07-.129-.106-.193-.067-.117-.1-.175-.078-.129-.118-.193-.069-.107-.1-.16-.086-.13-.13-.194c-.034-.048-.069-.1-.1-.143-.049-.067-.1-.134-.147-.2-.025-.032-.051-.064-.077-.1q-.2-.247-.409-.482l-.032-.036c-.066-.071-.134-.141-.2-.211-.031-.032-.061-.063-.092-.095-.067-.067-.136-.133-.206-.2l-.1-.1c-.071-.065-.144-.13-.217-.193l-.1-.089q-.116-.1-.235-.194l-.093-.073c-.087-.068-.174-.136-.264-.2l-.042-.03a14.722,14.722,0,0,0-1.418-.916l-.057-.033q-.174-.1-.355-.2l-.073-.039q-.182-.1-.37-.192l-.062-.031c-.133-.067-.268-.133-.406-.2h0a38.311,38.311,0,0,0-4.668-1.8c-.065-.021-.177-.054-.327-.1h.027c.225-3.464,2.5-7.1,1.467-9.908a53.547,53.547,0,0,1-3.281-17.793,13.137,13.137,0,0,0-2.877-6.732c-4.214-7.164-9.552-7.4-12.123-7Z" transform="translate(-127.099 -0.001)" fill="#1d1d1b" opacity="0.1"/>
      </g>
    </g>
  </g>
</svg>
