<svg xmlns="http://www.w3.org/2000/svg" width="236.849" height="30.385" viewBox="0 0 236.849 30.385">
  <g id="logo_360PatientInsights" transform="translate(-2345.002 -1600.472)">
    <path id="Path_1274" data-name="Path 1274" d="M.7-5.7A6.653,6.653,0,0,0,2.775-1.35,6.74,6.74,0,0,0,7.55.375,6.837,6.837,0,0,0,12.525-1.4,5.02,5.02,0,0,0,14-5.05a4.213,4.213,0,0,0-.7-2.45,4.08,4.08,0,0,0-1.975-1.525A2.859,2.859,0,0,0,12.6-10.3a4.015,4.015,0,0,0,.5-2.05,4.532,4.532,0,0,0-1.35-3.225A5.793,5.793,0,0,0,7.6-17.05a5.778,5.778,0,0,0-4.4,1.625A5.926,5.926,0,0,0,1.575-11.6H5.6a2.1,2.1,0,0,1,.575-1.475,1.7,1.7,0,0,1,1.2-.425,1.792,1.792,0,0,1,1.225.45,1.851,1.851,0,0,1,.45,1.2,1.565,1.565,0,0,1-.55,1.175,2.12,2.12,0,0,1-1.775.425v2.925a2.212,2.212,0,0,1,.725-.1,2.619,2.619,0,0,1,1.6.475A1.91,1.91,0,0,1,9.7-5.475,1.957,1.957,0,0,1,9.2-4.1a2.217,2.217,0,0,1-1.7.725,2.3,2.3,0,0,1-1.7-.65A2.6,2.6,0,0,1,5.125-5.7Z" transform="translate(2381.67 1622.46)" fill="#414544"/>
    <path id="Path_1273" data-name="Path 1273" d="M6.675-16.675l-3.725,4.9A10.763,10.763,0,0,0,.475-5.55,5.46,5.46,0,0,0,2-1.65,7.293,7.293,0,0,0,7.475.375,7.272,7.272,0,0,0,12.8-1.6a5.848,5.848,0,0,0,1.725-4.35A5.361,5.361,0,0,0,12.95-9.925a5.418,5.418,0,0,0-3.775-1.6A5.872,5.872,0,0,0,6.85-11l4.75-5.675ZM7.4-3.05A2.725,2.725,0,0,1,5.425-3.9,2.773,2.773,0,0,1,4.7-5.8a2.449,2.449,0,0,1,.825-1.725A2.932,2.932,0,0,1,7.4-8.25a2.718,2.718,0,0,1,1.925.775,2.383,2.383,0,0,1,.775,1.75,2.682,2.682,0,0,1-.775,1.9A2.655,2.655,0,0,1,7.4-3.05Z" transform="translate(2396.374 1622.46)" fill="#414544"/>
    <path id="Path_1275" data-name="Path 1275" d="M7.5-13.175a2.035,2.035,0,0,1,1.325.525c.875.775,1.45,2.9,1.45,4.375,0,1.425-.525,3.525-1.45,4.325A2.035,2.035,0,0,1,7.5-3.425,2.035,2.035,0,0,1,6.175-3.95C5.2-4.8,4.725-6.975,4.725-8.3c0-1.55.55-3.575,1.45-4.35A2.035,2.035,0,0,1,7.5-13.175Zm7.075,4.85A9.473,9.473,0,0,0,12.1-15.15a6.579,6.579,0,0,0-4.6-1.9,6.579,6.579,0,0,0-4.6,1.9A9.473,9.473,0,0,0,.425-8.325,9.452,9.452,0,0,0,2.9-1.525,6.579,6.579,0,0,0,7.5.375a6.579,6.579,0,0,0,4.6-1.9A9.452,9.452,0,0,0,14.575-8.325Z" transform="translate(2411.914 1622.46)" fill="#414544"/>
    <path id="Path_1276" data-name="Path 1276" d="M2.408-18.676V0H4.48V-8.12H6.3c4.256,0,5.908-2.6,5.908-5.236a5.2,5.2,0,0,0-1.708-4c-1.26-1.092-2.828-1.316-4.7-1.316Zm2.072,1.96H6.02c1.344,0,4.116.28,4.116,3.248,0,2.156-1.484,3.388-3.948,3.388H4.48ZM23.016-9.968A4.807,4.807,0,0,0,19.04-11.9c-2.968,0-5.656,2.072-5.656,6.076,0,4.088,2.716,6.16,5.656,6.16a4.9,4.9,0,0,0,3.976-1.96V0h2.016V-11.62H23.016Zm-3.752-.14c1.792,0,3.864,1.316,3.864,4.312,0,2.3-1.4,4.34-3.864,4.34-2.408,0-3.808-1.876-3.808-4.368C15.456-8.652,17.276-10.108,19.264-10.108Zm13.664.336V-11.62H30.912v-4.2H28.9v4.2H27.664v1.848H28.9V0h2.016V-9.772Zm1.9-1.848V0h2.016V-11.62Zm-.42-4.4a1.434,1.434,0,0,0,1.428,1.428,1.434,1.434,0,0,0,1.428-1.428,1.434,1.434,0,0,0-1.428-1.428A1.434,1.434,0,0,0,34.412-16.016ZM49.28-3.892a4.629,4.629,0,0,1-1.2,1.6,3.533,3.533,0,0,1-2.38.84A3.722,3.722,0,0,1,42-5.4h9.044a7.8,7.8,0,0,0-1.092-4.368,5.2,5.2,0,0,0-4.4-2.128c-3.5,0-5.628,2.688-5.628,6.16,0,4.312,2.94,6.076,5.74,6.076a5.641,5.641,0,0,0,3.864-1.428A6.952,6.952,0,0,0,50.96-2.968ZM42.14-7.084a3.531,3.531,0,0,1,3.416-3.024,3.477,3.477,0,0,1,3.416,3.024ZM54.124,0H56.14V-6.076a4.895,4.895,0,0,1,.84-3.136,2.541,2.541,0,0,1,2.044-.9,2.28,2.28,0,0,1,1.9.84A3.416,3.416,0,0,1,61.46-7.14V0h2.016V-7.2A5.182,5.182,0,0,0,62.8-10.3a3.941,3.941,0,0,0-3.332-1.6,4.1,4.1,0,0,0-3.332,1.624V-11.62H54.124ZM71.372-9.772V-11.62H69.356v-4.2H67.34v4.2H66.108v1.848H67.34V0h2.016V-9.772Zm2.408-8.9V0h2.072V-18.676ZM80.164,0H82.18V-6.076a4.895,4.895,0,0,1,.84-3.136,2.541,2.541,0,0,1,2.044-.9,2.28,2.28,0,0,1,1.9.84A3.416,3.416,0,0,1,87.5-7.14V0h2.016V-7.2a5.182,5.182,0,0,0-.672-3.108,3.941,3.941,0,0,0-3.332-1.6,4.1,4.1,0,0,0-3.332,1.624V-11.62H80.164Zm19.6-9.8a3.352,3.352,0,0,0-3.192-2.1,3.124,3.124,0,0,0-3.388,3.248,2.524,2.524,0,0,0,.532,1.708,7.58,7.58,0,0,0,2.828,1.708c1.092.476,1.876.84,1.876,1.932a1.8,1.8,0,0,1-1.9,1.848,2.629,2.629,0,0,1-2.352-1.9l-1.736.728A4.156,4.156,0,0,0,96.488.336a3.7,3.7,0,0,0,4-3.808,2.751,2.751,0,0,0-.616-1.876A7.065,7.065,0,0,0,96.964-7.14c-1.316-.56-1.876-.812-1.876-1.652a1.284,1.284,0,0,1,1.4-1.316,1.782,1.782,0,0,1,1.624,1.176Zm3.416-1.82V0H105.2V-11.62Zm-.42-4.4a1.434,1.434,0,0,0,1.428,1.428,1.434,1.434,0,0,0,1.428-1.428,1.434,1.434,0,0,0-1.428-1.428A1.434,1.434,0,0,0,102.76-16.016Zm15.148,6.048a4.833,4.833,0,0,0-3.976-1.932,5.729,5.729,0,0,0-3.976,1.568,6.1,6.1,0,0,0-1.68,4.508,6.293,6.293,0,0,0,1.68,4.592A5.566,5.566,0,0,0,113.932.336a4.9,4.9,0,0,0,3.976-1.96V.056a5.4,5.4,0,0,1-.644,2.968,3.258,3.258,0,0,1-3.08,1.624,3.6,3.6,0,0,1-2.8-1.12,3.658,3.658,0,0,1-.9-2.408H108.5a5.235,5.235,0,0,0,1.512,3.752,5.754,5.754,0,0,0,4.144,1.568A5.653,5.653,0,0,0,118.8,4.284a7.311,7.311,0,0,0,1.12-4.564V-11.62h-2.016Zm-3.752-.14a3.726,3.726,0,0,1,2.632,1.036A4.594,4.594,0,0,1,118.02-5.8a4.711,4.711,0,0,1-1.316,3.36,3.439,3.439,0,0,1-2.548.98,3.516,3.516,0,0,1-2.492-.952,4.479,4.479,0,0,1-1.316-3.416,4.424,4.424,0,0,1,1.176-3.192A3.6,3.6,0,0,1,114.156-10.108ZM123.732,0h2.016V-6.076a4.895,4.895,0,0,1,.84-3.136,2.541,2.541,0,0,1,2.044-.9,2.28,2.28,0,0,1,1.9.84,3.416,3.416,0,0,1,.532,2.128V0h2.016V-7.2a5.182,5.182,0,0,0-.672-3.108,3.941,3.941,0,0,0-3.332-1.6,4.1,4.1,0,0,0-3.332,1.624V-20.412h-2.016ZM140.98-9.772V-11.62h-2.016v-4.2h-2.016v4.2h-1.232v1.848h1.232V0h2.016V-9.772Zm8.344-.028a3.352,3.352,0,0,0-3.192-2.1,3.124,3.124,0,0,0-3.388,3.248,2.524,2.524,0,0,0,.532,1.708A7.58,7.58,0,0,0,146.1-5.236c1.092.476,1.876.84,1.876,1.932a1.8,1.8,0,0,1-1.9,1.848,2.629,2.629,0,0,1-2.352-1.9l-1.736.728a4.156,4.156,0,0,0,4.06,2.968,3.7,3.7,0,0,0,4-3.808,2.751,2.751,0,0,0-.616-1.876,7.065,7.065,0,0,0-2.912-1.792c-1.316-.56-1.876-.812-1.876-1.652a1.284,1.284,0,0,1,1.4-1.316,1.782,1.782,0,0,1,1.624,1.176Z" transform="translate(2431.799 1622.884)" fill="#8c8c8c"/>
    <g id="Group_4657" data-name="Group 4657" transform="translate(2345.002 1600.472)">
      <path id="Path_275" data-name="Path 275" d="M11.878,26.305A11.571,11.571,0,0,1,8.3,25.443,13.081,13.081,0,0,1,1.034,18.3a12.841,12.841,0,0,1-.927-6.765A12.914,12.914,0,0,1,3.293,4.471,12.983,12.983,0,0,1,8.762.761,12.792,12.792,0,0,1,13.084,0c.088,0,.175.009.263.013-.17.533-.3,1.076-.423,1.621A4.21,4.21,0,0,0,12.77,3.5c-.113.016-.226.037-.339.048A9.47,9.47,0,0,0,6.746,5.958a8.965,8.965,0,0,0-1.777,2.1A9.5,9.5,0,0,0,5.193,18.63c.047.075.076.179.187.2.021-.034.04-.064.058-.094s.042-.077.065-.115a3.94,3.94,0,0,1,3.66-2.078c.634.018,1.27,0,1.9,0l5.582,0a3.119,3.119,0,0,1-.6,1.771A8.972,8.972,0,0,1,14.417,20a16.516,16.516,0,0,0-2.37,2.13,3,3,0,0,0-.485,3.566l.316.607" transform="translate(0.001 0)" fill="#3eaaab"/>
      <path id="Path_276" data-name="Path 276" d="M211.873,26.508l-.316-.607a3,3,0,0,1,.484-3.566,16.514,16.514,0,0,1,2.37-2.13,8.973,8.973,0,0,0,1.631-1.681,3.119,3.119,0,0,0,.6-1.771c.2,0,.4,0,.607-.008a3.943,3.943,0,0,1,3.646,2.11c.039.063.046.155.138.177a9.51,9.51,0,0,0,1.682-7.411,9.67,9.67,0,0,0-7.587-7.715,14.269,14.269,0,0,0-2.365-.207,4.209,4.209,0,0,1,.154-1.863c.122-.545.253-1.088.423-1.621a11.281,11.281,0,0,1,4.168.71,12.927,12.927,0,0,1,8.614,9.8,13.146,13.146,0,0,1-7.477,14.684,13.5,13.5,0,0,1-6.515,1.136c-.087-.006-.173-.024-.26-.037" transform="translate(-199.994 -0.203)" fill="#b31857"/>
      <path id="Path_277" data-name="Path 277" d="M172.591,122.734a4.278,4.278,0,1,1-4.308,4.216,4.281,4.281,0,0,1,4.308-4.216" transform="translate(-159.374 -116.237)" fill="#3eaaab"/>
      <rect id="Rectangle_72" data-name="Rectangle 72" width="26.426" height="26.376" transform="translate(0)" fill="none"/>
      <path id="Path_1272" data-name="Path 1272" d="M0,1.928a7.148,7.148,0,0,0,3.037-.675A11.384,11.384,0,0,0,5.109,0L6.7,3.808A2.76,2.76,0,0,1,4.884,6.829,2.816,2.816,0,0,1,1.542,5.688Z" transform="matrix(0.951, -0.309, 0.309, 0.951, 19.657, 23.716)" fill="#b31857"/>
    </g>
  </g>
</svg>
